# xmcd
#
# Track frame offsets: 
#        150
#        25207
#        43830
#        71925
#        98336
#        114833
#        134187
#        164726
#        177072
#        209022
#
# Disc length: 3030 seconds
#
# Revision: 0
# Processed by: cddbd v1.5.2PL0 Copyright (c) Steve Scherf et al.
# Submitted via: ExactAudioCopyFreeDBPlugin 1.0
#
DISCID=930bd40a
DTITLE=Ebba Forsberg - Ta Min Vals: Ebba Forsberg Sjunger Leonard Cohe
DTITLE=n {2011 CD and Live DVD Ed}
DYEAR=2009
DGENRE=Folk
TTITLE0=Här Ar Det
TTITLE1=Dansa Mej Till Kärleken
TTITLE2=Ta Min Vals
TTITLE3=Halleluja
TTITLE4=Kärlekens Systrar
TTITLE5=Må Din Vilja Ske
TTITLE6=Johanna Ifrån Orleans
TTITLE7=Det Här Ar Inget Sätt Att Säg Adjo
TTITLE8=Gästerna
TTITLE9=Vem Genom Eld
EXTD=
EXTT0=
EXTT1=
EXTT2=
EXTT3=
EXTT4=
EXTT5=
EXTT6=
EXTT7=
EXTT8=
EXTT9=
PLAYORDER=
